# xmcd CD database file
#
# Track frame offsets:
#	150
#	12653
#	31821
#	51245
#	67177
#	84410
#	103930
#	127814
#	142973
#	157604
#	171767
#	188039
#
# Disc length: 2742 seconds
#
# Revision: 0
# Processed by: cddbd v1.5.2PL0 Copyright (c) Steve Scherf et al.
# Submitted via: CDex 1.51
#
DISCID=970ab40c
DTITLE=Lori Cullen - calling for rain
DYEAR=2006
DGENRE=Jazz
TTITLE0=I Think It's Gonna Rain Today
TTITLE1=Alone Again Naturally
TTITLE2=Me and My Arrow
TTITLE3=Away So Long
TTITLE4=Two Grey Rooms
TTITLE5=Pussywillows Cat-tails
TTITLE6=Waltzing's for Dreamers
TTITLE7=You Fascinate Me So
TTITLE8=Fall
TTITLE9=Tied Up in the Yard
TTITLE10=Moon River
TTITLE11=Blue Skies
EXTD=YEAR: 2006
EXTT0=
EXTT1=
EXTT2=
EXTT3=
EXTT4=
EXTT5=
EXTT6=
EXTT7=
EXTT8=
EXTT9=
EXTT10=
EXTT11=
PLAYORDER=
